<svg fill="#424242" height="50" width="56" version="1.1" id="Layer_1" xmlns="http://www.w3.org/2000/svg" xmlns:xlink="http://www.w3.org/1999/xlink" viewBox="0 0 511.999 511.999" xml:space="preserve" stroke="#424242"><g id="SVGRepo_bgCarrier" stroke-width="0"></g><g id="SVGRepo_tracerCarrier" stroke-linecap="round" stroke-linejoin="round"></g><g id="SVGRepo_iconCarrier"> <g> <g> <g> <path d="M511.952,202.505c0-4.686-1.939-9.013-4.999-12.074L394.828,78.305c-3.175-3.175-7.595-4.998-12.067-4.998H17.082 c-9.424,0-17.065,7.64-17.065,17.064c0,215.111-0.041,291.13,0.001,318.242c0.008,5.33,6.685,7.714,10.076,3.603l163.687-198.452 c4.573-5.544,13.07-5.507,17.599,0.057l64.603,79.359l64.603-79.359c4.551-5.591,13.099-5.586,17.643,0l163.625,201.002 c3.371,4.141,10.074,1.775,10.099-3.565C512.055,390.304,511.952,337.673,511.952,202.505z M95.78,213.637 c-24.575,0-44.57-19.994-44.57-44.57s19.994-44.569,44.57-44.569c24.575,0,44.57,19.994,44.57,44.569 C140.35,193.643,120.356,213.637,95.78,213.637z M399.827,185.433v-53.863l53.862,53.863H399.827z"></path> <path d="M333.82,244.443c-2.276-2.796-6.546-2.796-8.822,0l-60.191,73.94c-4.551,5.591-13.099,5.586-17.645,0l-60.279-74.047 c-2.266-2.785-6.515-2.799-8.8-0.028L25.431,429.384c-3.06,3.71-0.421,9.307,4.388,9.307h450.164c4.792,0,7.437-5.563,4.412-9.28 L333.82,244.443z"></path> </g> </g> </g> </g></svg>